<?xml version="1.0" encoding="UTF-8"?>
<!--
  CruxCoach community sticker — round 50 mm (PREVIEW)
  Layout: logo-in-qr — VISUAL equal gaps (all-caps text bottom = baseline)
-->
<svg xmlns="http://www.w3.org/2000/svg"
     xmlns:xlink="http://www.w3.org/1999/xlink"
     width="56mm" height="56mm"
     viewBox="0 0 560 560">

  <defs>
    <radialGradient id="gL" gradientUnits="userSpaceOnUse" cx="256" cy="256" r="210">
      <stop offset="40%" stop-color="#FF8C2A"/>
      <stop offset="100%" stop-color="#B84400"/>
    </radialGradient>
    <radialGradient id="gR" gradientUnits="userSpaceOnUse" cx="256" cy="256" r="210">
      <stop offset="40%" stop-color="#E05800"/>
      <stop offset="100%" stop-color="#8C3000"/>
    </radialGradient>
    <radialGradient id="gX" gradientUnits="userSpaceOnUse" cx="256" cy="256" r="80">
      <stop offset="0%" stop-color="#FFD080"/>
      <stop offset="100%" stop-color="#E08A00"/>
    </radialGradient>
    <g id="cclogo">
      <path d="M 252,56 A 200,200 0 1 0 248,456 L 248,384 A 128,128 0 1 1 252,128 Z" fill="url(#gL)"/>
      <path d="M 260,456 A 200,200 0 1 0 264,56 L 264,128 A 128,128 0 1 1 260,384 Z" fill="url(#gR)"/>
      <polygon points="192,214 214,192 256,234 298,192 320,214 274,256 320,298 298,320 256,278 214,320 192,298 238,256"
               fill="url(#gX)" stroke="#FFFFFF" stroke-width="1" stroke-opacity="0.15"/>
    </g>
  </defs>

  <circle cx="280" cy="280" r="250" fill="#141312"/>

  <rect x="168.00" y="71.00" width="224.00" height="224.00"
        rx="3.00" ry="3.00" fill="#f0ede6"/>

  <g transform="translate(170.00, 73.00) scale(5.9459)">
    <rect width="37" height="37" fill="#f0ede6"/>
    <g fill="#141312" shape-rendering="crispEdges">
      <rect x="2" y="2" width="1" height="1"/>
      <rect x="3" y="2" width="1" height="1"/>
      <rect x="4" y="2" width="1" height="1"/>
      <rect x="5" y="2" width="1" height="1"/>
      <rect x="6" y="2" width="1" height="1"/>
      <rect x="7" y="2" width="1" height="1"/>
      <rect x="8" y="2" width="1" height="1"/>
      <rect x="13" y="2" width="1" height="1"/>
      <rect x="17" y="2" width="1" height="1"/>
      <rect x="18" y="2" width="1" height="1"/>
      <rect x="19" y="2" width="1" height="1"/>
      <rect x="20" y="2" width="1" height="1"/>
      <rect x="23" y="2" width="1" height="1"/>
      <rect x="24" y="2" width="1" height="1"/>
      <rect x="26" y="2" width="1" height="1"/>
      <rect x="28" y="2" width="1" height="1"/>
      <rect x="29" y="2" width="1" height="1"/>
      <rect x="30" y="2" width="1" height="1"/>
      <rect x="31" y="2" width="1" height="1"/>
      <rect x="32" y="2" width="1" height="1"/>
      <rect x="33" y="2" width="1" height="1"/>
      <rect x="34" y="2" width="1" height="1"/>
      <rect x="2" y="3" width="1" height="1"/>
      <rect x="8" y="3" width="1" height="1"/>
      <rect x="10" y="3" width="1" height="1"/>
      <rect x="12" y="3" width="1" height="1"/>
      <rect x="14" y="3" width="1" height="1"/>
      <rect x="16" y="3" width="1" height="1"/>
      <rect x="17" y="3" width="1" height="1"/>
      <rect x="19" y="3" width="1" height="1"/>
      <rect x="22" y="3" width="1" height="1"/>
      <rect x="28" y="3" width="1" height="1"/>
      <rect x="34" y="3" width="1" height="1"/>
      <rect x="2" y="4" width="1" height="1"/>
      <rect x="4" y="4" width="1" height="1"/>
      <rect x="5" y="4" width="1" height="1"/>
      <rect x="6" y="4" width="1" height="1"/>
      <rect x="8" y="4" width="1" height="1"/>
      <rect x="10" y="4" width="1" height="1"/>
      <rect x="12" y="4" width="1" height="1"/>
      <rect x="13" y="4" width="1" height="1"/>
      <rect x="14" y="4" width="1" height="1"/>
      <rect x="15" y="4" width="1" height="1"/>
      <rect x="16" y="4" width="1" height="1"/>
      <rect x="19" y="4" width="1" height="1"/>
      <rect x="21" y="4" width="1" height="1"/>
      <rect x="22" y="4" width="1" height="1"/>
      <rect x="23" y="4" width="1" height="1"/>
      <rect x="26" y="4" width="1" height="1"/>
      <rect x="28" y="4" width="1" height="1"/>
      <rect x="30" y="4" width="1" height="1"/>
      <rect x="31" y="4" width="1" height="1"/>
      <rect x="32" y="4" width="1" height="1"/>
      <rect x="34" y="4" width="1" height="1"/>
      <rect x="2" y="5" width="1" height="1"/>
      <rect x="4" y="5" width="1" height="1"/>
      <rect x="5" y="5" width="1" height="1"/>
      <rect x="6" y="5" width="1" height="1"/>
      <rect x="8" y="5" width="1" height="1"/>
      <rect x="10" y="5" width="1" height="1"/>
      <rect x="13" y="5" width="1" height="1"/>
      <rect x="14" y="5" width="1" height="1"/>
      <rect x="16" y="5" width="1" height="1"/>
      <rect x="19" y="5" width="1" height="1"/>
      <rect x="20" y="5" width="1" height="1"/>
      <rect x="21" y="5" width="1" height="1"/>
      <rect x="23" y="5" width="1" height="1"/>
      <rect x="24" y="5" width="1" height="1"/>
      <rect x="25" y="5" width="1" height="1"/>
      <rect x="26" y="5" width="1" height="1"/>
      <rect x="28" y="5" width="1" height="1"/>
      <rect x="30" y="5" width="1" height="1"/>
      <rect x="31" y="5" width="1" height="1"/>
      <rect x="32" y="5" width="1" height="1"/>
      <rect x="34" y="5" width="1" height="1"/>
      <rect x="2" y="6" width="1" height="1"/>
      <rect x="4" y="6" width="1" height="1"/>
      <rect x="5" y="6" width="1" height="1"/>
      <rect x="6" y="6" width="1" height="1"/>
      <rect x="8" y="6" width="1" height="1"/>
      <rect x="10" y="6" width="1" height="1"/>
      <rect x="11" y="6" width="1" height="1"/>
      <rect x="13" y="6" width="1" height="1"/>
      <rect x="15" y="6" width="1" height="1"/>
      <rect x="16" y="6" width="1" height="1"/>
      <rect x="18" y="6" width="1" height="1"/>
      <rect x="19" y="6" width="1" height="1"/>
      <rect x="20" y="6" width="1" height="1"/>
      <rect x="21" y="6" width="1" height="1"/>
      <rect x="23" y="6" width="1" height="1"/>
      <rect x="24" y="6" width="1" height="1"/>
      <rect x="25" y="6" width="1" height="1"/>
      <rect x="26" y="6" width="1" height="1"/>
      <rect x="28" y="6" width="1" height="1"/>
      <rect x="30" y="6" width="1" height="1"/>
      <rect x="31" y="6" width="1" height="1"/>
      <rect x="32" y="6" width="1" height="1"/>
      <rect x="34" y="6" width="1" height="1"/>
      <rect x="2" y="7" width="1" height="1"/>
      <rect x="8" y="7" width="1" height="1"/>
      <rect x="10" y="7" width="1" height="1"/>
      <rect x="11" y="7" width="1" height="1"/>
      <rect x="12" y="7" width="1" height="1"/>
      <rect x="14" y="7" width="1" height="1"/>
      <rect x="15" y="7" width="1" height="1"/>
      <rect x="19" y="7" width="1" height="1"/>
      <rect x="22" y="7" width="1" height="1"/>
      <rect x="26" y="7" width="1" height="1"/>
      <rect x="28" y="7" width="1" height="1"/>
      <rect x="34" y="7" width="1" height="1"/>
      <rect x="2" y="8" width="1" height="1"/>
      <rect x="3" y="8" width="1" height="1"/>
      <rect x="4" y="8" width="1" height="1"/>
      <rect x="5" y="8" width="1" height="1"/>
      <rect x="6" y="8" width="1" height="1"/>
      <rect x="7" y="8" width="1" height="1"/>
      <rect x="8" y="8" width="1" height="1"/>
      <rect x="10" y="8" width="1" height="1"/>
      <rect x="12" y="8" width="1" height="1"/>
      <rect x="14" y="8" width="1" height="1"/>
      <rect x="16" y="8" width="1" height="1"/>
      <rect x="18" y="8" width="1" height="1"/>
      <rect x="20" y="8" width="1" height="1"/>
      <rect x="22" y="8" width="1" height="1"/>
      <rect x="24" y="8" width="1" height="1"/>
      <rect x="26" y="8" width="1" height="1"/>
      <rect x="28" y="8" width="1" height="1"/>
      <rect x="29" y="8" width="1" height="1"/>
      <rect x="30" y="8" width="1" height="1"/>
      <rect x="31" y="8" width="1" height="1"/>
      <rect x="32" y="8" width="1" height="1"/>
      <rect x="33" y="8" width="1" height="1"/>
      <rect x="34" y="8" width="1" height="1"/>
      <rect x="12" y="9" width="1" height="1"/>
      <rect x="13" y="9" width="1" height="1"/>
      <rect x="17" y="9" width="1" height="1"/>
      <rect x="24" y="9" width="1" height="1"/>
      <rect x="4" y="10" width="1" height="1"/>
      <rect x="7" y="10" width="1" height="1"/>
      <rect x="8" y="10" width="1" height="1"/>
      <rect x="9" y="10" width="1" height="1"/>
      <rect x="10" y="10" width="1" height="1"/>
      <rect x="17" y="10" width="1" height="1"/>
      <rect x="18" y="10" width="1" height="1"/>
      <rect x="19" y="10" width="1" height="1"/>
      <rect x="20" y="10" width="1" height="1"/>
      <rect x="21" y="10" width="1" height="1"/>
      <rect x="22" y="10" width="1" height="1"/>
      <rect x="23" y="10" width="1" height="1"/>
      <rect x="24" y="10" width="1" height="1"/>
      <rect x="25" y="10" width="1" height="1"/>
      <rect x="26" y="10" width="1" height="1"/>
      <rect x="27" y="10" width="1" height="1"/>
      <rect x="29" y="10" width="1" height="1"/>
      <rect x="30" y="10" width="1" height="1"/>
      <rect x="31" y="10" width="1" height="1"/>
      <rect x="32" y="10" width="1" height="1"/>
      <rect x="33" y="10" width="1" height="1"/>
      <rect x="2" y="11" width="1" height="1"/>
      <rect x="6" y="11" width="1" height="1"/>
      <rect x="10" y="11" width="1" height="1"/>
      <rect x="11" y="11" width="1" height="1"/>
      <rect x="13" y="11" width="1" height="1"/>
      <rect x="15" y="11" width="1" height="1"/>
      <rect x="16" y="11" width="1" height="1"/>
      <rect x="17" y="11" width="1" height="1"/>
      <rect x="19" y="11" width="1" height="1"/>
      <rect x="21" y="11" width="1" height="1"/>
      <rect x="23" y="11" width="1" height="1"/>
      <rect x="24" y="11" width="1" height="1"/>
      <rect x="26" y="11" width="1" height="1"/>
      <rect x="27" y="11" width="1" height="1"/>
      <rect x="28" y="11" width="1" height="1"/>
      <rect x="29" y="11" width="1" height="1"/>
      <rect x="31" y="11" width="1" height="1"/>
      <rect x="32" y="11" width="1" height="1"/>
      <rect x="33" y="11" width="1" height="1"/>
      <rect x="34" y="11" width="1" height="1"/>
      <rect x="3" y="12" width="1" height="1"/>
      <rect x="4" y="12" width="1" height="1"/>
      <rect x="5" y="12" width="1" height="1"/>
      <rect x="7" y="12" width="1" height="1"/>
      <rect x="8" y="12" width="1" height="1"/>
      <rect x="10" y="12" width="1" height="1"/>
      <rect x="12" y="12" width="1" height="1"/>
      <rect x="13" y="12" width="1" height="1"/>
      <rect x="14" y="12" width="1" height="1"/>
      <rect x="15" y="12" width="1" height="1"/>
      <rect x="16" y="12" width="1" height="1"/>
      <rect x="18" y="12" width="1" height="1"/>
      <rect x="19" y="12" width="1" height="1"/>
      <rect x="22" y="12" width="1" height="1"/>
      <rect x="26" y="12" width="1" height="1"/>
      <rect x="27" y="12" width="1" height="1"/>
      <rect x="29" y="12" width="1" height="1"/>
      <rect x="30" y="12" width="1" height="1"/>
      <rect x="31" y="12" width="1" height="1"/>
      <rect x="34" y="12" width="1" height="1"/>
      <rect x="2" y="13" width="1" height="1"/>
      <rect x="3" y="13" width="1" height="1"/>
      <rect x="6" y="13" width="1" height="1"/>
      <rect x="10" y="13" width="1" height="1"/>
      <rect x="11" y="13" width="1" height="1"/>
      <rect x="16" y="13" width="1" height="1"/>
      <rect x="18" y="13" width="1" height="1"/>
      <rect x="20" y="13" width="1" height="1"/>
      <rect x="23" y="13" width="1" height="1"/>
      <rect x="25" y="13" width="1" height="1"/>
      <rect x="26" y="13" width="1" height="1"/>
      <rect x="29" y="13" width="1" height="1"/>
      <rect x="31" y="13" width="1" height="1"/>
      <rect x="33" y="13" width="1" height="1"/>
      <rect x="34" y="13" width="1" height="1"/>
      <rect x="3" y="14" width="1" height="1"/>
      <rect x="7" y="14" width="1" height="1"/>
      <rect x="8" y="14" width="1" height="1"/>
      <rect x="10" y="14" width="1" height="1"/>
      <rect x="12" y="14" width="1" height="1"/>
      <rect x="15" y="14" width="1" height="1"/>
      <rect x="20" y="14" width="1" height="1"/>
      <rect x="21" y="14" width="1" height="1"/>
      <rect x="23" y="14" width="1" height="1"/>
      <rect x="26" y="14" width="1" height="1"/>
      <rect x="28" y="14" width="1" height="1"/>
      <rect x="29" y="14" width="1" height="1"/>
      <rect x="30" y="14" width="1" height="1"/>
      <rect x="31" y="14" width="1" height="1"/>
      <rect x="33" y="14" width="1" height="1"/>
      <rect x="34" y="14" width="1" height="1"/>
      <rect x="2" y="15" width="1" height="1"/>
      <rect x="9" y="15" width="1" height="1"/>
      <rect x="10" y="15" width="1" height="1"/>
      <rect x="13" y="15" width="1" height="1"/>
      <rect x="14" y="15" width="1" height="1"/>
      <rect x="15" y="15" width="1" height="1"/>
      <rect x="17" y="15" width="1" height="1"/>
      <rect x="18" y="15" width="1" height="1"/>
      <rect x="19" y="15" width="1" height="1"/>
      <rect x="21" y="15" width="1" height="1"/>
      <rect x="23" y="15" width="1" height="1"/>
      <rect x="25" y="15" width="1" height="1"/>
      <rect x="26" y="15" width="1" height="1"/>
      <rect x="28" y="15" width="1" height="1"/>
      <rect x="29" y="15" width="1" height="1"/>
      <rect x="30" y="15" width="1" height="1"/>
      <rect x="31" y="15" width="1" height="1"/>
      <rect x="32" y="15" width="1" height="1"/>
      <rect x="34" y="15" width="1" height="1"/>
      <rect x="4" y="16" width="1" height="1"/>
      <rect x="8" y="16" width="1" height="1"/>
      <rect x="10" y="16" width="1" height="1"/>
      <rect x="13" y="16" width="1" height="1"/>
      <rect x="14" y="16" width="1" height="1"/>
      <rect x="18" y="16" width="1" height="1"/>
      <rect x="20" y="16" width="1" height="1"/>
      <rect x="21" y="16" width="1" height="1"/>
      <rect x="22" y="16" width="1" height="1"/>
      <rect x="25" y="16" width="1" height="1"/>
      <rect x="28" y="16" width="1" height="1"/>
      <rect x="29" y="16" width="1" height="1"/>
      <rect x="31" y="16" width="1" height="1"/>
      <rect x="34" y="16" width="1" height="1"/>
      <rect x="2" y="17" width="1" height="1"/>
      <rect x="3" y="17" width="1" height="1"/>
      <rect x="5" y="17" width="1" height="1"/>
      <rect x="12" y="17" width="1" height="1"/>
      <rect x="15" y="17" width="1" height="1"/>
      <rect x="19" y="17" width="1" height="1"/>
      <rect x="20" y="17" width="1" height="1"/>
      <rect x="22" y="17" width="1" height="1"/>
      <rect x="24" y="17" width="1" height="1"/>
      <rect x="25" y="17" width="1" height="1"/>
      <rect x="26" y="17" width="1" height="1"/>
      <rect x="27" y="17" width="1" height="1"/>
      <rect x="28" y="17" width="1" height="1"/>
      <rect x="29" y="17" width="1" height="1"/>
      <rect x="30" y="17" width="1" height="1"/>
      <rect x="31" y="17" width="1" height="1"/>
      <rect x="32" y="17" width="1" height="1"/>
      <rect x="33" y="17" width="1" height="1"/>
      <rect x="3" y="18" width="1" height="1"/>
      <rect x="7" y="18" width="1" height="1"/>
      <rect x="8" y="18" width="1" height="1"/>
      <rect x="9" y="18" width="1" height="1"/>
      <rect x="10" y="18" width="1" height="1"/>
      <rect x="11" y="18" width="1" height="1"/>
      <rect x="13" y="18" width="1" height="1"/>
      <rect x="16" y="18" width="1" height="1"/>
      <rect x="17" y="18" width="1" height="1"/>
      <rect x="19" y="18" width="1" height="1"/>
      <rect x="21" y="18" width="1" height="1"/>
      <rect x="24" y="18" width="1" height="1"/>
      <rect x="27" y="18" width="1" height="1"/>
      <rect x="28" y="18" width="1" height="1"/>
      <rect x="29" y="18" width="1" height="1"/>
      <rect x="31" y="18" width="1" height="1"/>
      <rect x="32" y="18" width="1" height="1"/>
      <rect x="34" y="18" width="1" height="1"/>
      <rect x="2" y="19" width="1" height="1"/>
      <rect x="6" y="19" width="1" height="1"/>
      <rect x="9" y="19" width="1" height="1"/>
      <rect x="14" y="19" width="1" height="1"/>
      <rect x="15" y="19" width="1" height="1"/>
      <rect x="21" y="19" width="1" height="1"/>
      <rect x="25" y="19" width="1" height="1"/>
      <rect x="29" y="19" width="1" height="1"/>
      <rect x="32" y="19" width="1" height="1"/>
      <rect x="33" y="19" width="1" height="1"/>
      <rect x="4" y="20" width="1" height="1"/>
      <rect x="7" y="20" width="1" height="1"/>
      <rect x="8" y="20" width="1" height="1"/>
      <rect x="9" y="20" width="1" height="1"/>
      <rect x="10" y="20" width="1" height="1"/>
      <rect x="12" y="20" width="1" height="1"/>
      <rect x="13" y="20" width="1" height="1"/>
      <rect x="16" y="20" width="1" height="1"/>
      <rect x="20" y="20" width="1" height="1"/>
      <rect x="24" y="20" width="1" height="1"/>
      <rect x="25" y="20" width="1" height="1"/>
      <rect x="27" y="20" width="1" height="1"/>
      <rect x="28" y="20" width="1" height="1"/>
      <rect x="29" y="20" width="1" height="1"/>
      <rect x="31" y="20" width="1" height="1"/>
      <rect x="32" y="20" width="1" height="1"/>
      <rect x="33" y="20" width="1" height="1"/>
      <rect x="34" y="20" width="1" height="1"/>
      <rect x="4" y="21" width="1" height="1"/>
      <rect x="6" y="21" width="1" height="1"/>
      <rect x="9" y="21" width="1" height="1"/>
      <rect x="11" y="21" width="1" height="1"/>
      <rect x="12" y="21" width="1" height="1"/>
      <rect x="14" y="21" width="1" height="1"/>
      <rect x="17" y="21" width="1" height="1"/>
      <rect x="24" y="21" width="1" height="1"/>
      <rect x="25" y="21" width="1" height="1"/>
      <rect x="27" y="21" width="1" height="1"/>
      <rect x="31" y="21" width="1" height="1"/>
      <rect x="33" y="21" width="1" height="1"/>
      <rect x="2" y="22" width="1" height="1"/>
      <rect x="4" y="22" width="1" height="1"/>
      <rect x="8" y="22" width="1" height="1"/>
      <rect x="10" y="22" width="1" height="1"/>
      <rect x="11" y="22" width="1" height="1"/>
      <rect x="12" y="22" width="1" height="1"/>
      <rect x="13" y="22" width="1" height="1"/>
      <rect x="14" y="22" width="1" height="1"/>
      <rect x="18" y="22" width="1" height="1"/>
      <rect x="22" y="22" width="1" height="1"/>
      <rect x="25" y="22" width="1" height="1"/>
      <rect x="26" y="22" width="1" height="1"/>
      <rect x="27" y="22" width="1" height="1"/>
      <rect x="28" y="22" width="1" height="1"/>
      <rect x="33" y="22" width="1" height="1"/>
      <rect x="34" y="22" width="1" height="1"/>
      <rect x="3" y="23" width="1" height="1"/>
      <rect x="6" y="23" width="1" height="1"/>
      <rect x="9" y="23" width="1" height="1"/>
      <rect x="12" y="23" width="1" height="1"/>
      <rect x="13" y="23" width="1" height="1"/>
      <rect x="15" y="23" width="1" height="1"/>
      <rect x="16" y="23" width="1" height="1"/>
      <rect x="17" y="23" width="1" height="1"/>
      <rect x="20" y="23" width="1" height="1"/>
      <rect x="21" y="23" width="1" height="1"/>
      <rect x="22" y="23" width="1" height="1"/>
      <rect x="23" y="23" width="1" height="1"/>
      <rect x="26" y="23" width="1" height="1"/>
      <rect x="27" y="23" width="1" height="1"/>
      <rect x="29" y="23" width="1" height="1"/>
      <rect x="34" y="23" width="1" height="1"/>
      <rect x="2" y="24" width="1" height="1"/>
      <rect x="3" y="24" width="1" height="1"/>
      <rect x="4" y="24" width="1" height="1"/>
      <rect x="5" y="24" width="1" height="1"/>
      <rect x="7" y="24" width="1" height="1"/>
      <rect x="8" y="24" width="1" height="1"/>
      <rect x="9" y="24" width="1" height="1"/>
      <rect x="10" y="24" width="1" height="1"/>
      <rect x="11" y="24" width="1" height="1"/>
      <rect x="12" y="24" width="1" height="1"/>
      <rect x="16" y="24" width="1" height="1"/>
      <rect x="19" y="24" width="1" height="1"/>
      <rect x="21" y="24" width="1" height="1"/>
      <rect x="22" y="24" width="1" height="1"/>
      <rect x="26" y="24" width="1" height="1"/>
      <rect x="27" y="24" width="1" height="1"/>
      <rect x="28" y="24" width="1" height="1"/>
      <rect x="30" y="24" width="1" height="1"/>
      <rect x="31" y="24" width="1" height="1"/>
      <rect x="33" y="24" width="1" height="1"/>
      <rect x="34" y="24" width="1" height="1"/>
      <rect x="4" y="25" width="1" height="1"/>
      <rect x="5" y="25" width="1" height="1"/>
      <rect x="7" y="25" width="1" height="1"/>
      <rect x="9" y="25" width="1" height="1"/>
      <rect x="10" y="25" width="1" height="1"/>
      <rect x="12" y="25" width="1" height="1"/>
      <rect x="14" y="25" width="1" height="1"/>
      <rect x="15" y="25" width="1" height="1"/>
      <rect x="16" y="25" width="1" height="1"/>
      <rect x="19" y="25" width="1" height="1"/>
      <rect x="20" y="25" width="1" height="1"/>
      <rect x="22" y="25" width="1" height="1"/>
      <rect x="23" y="25" width="1" height="1"/>
      <rect x="25" y="25" width="1" height="1"/>
      <rect x="26" y="25" width="1" height="1"/>
      <rect x="29" y="25" width="1" height="1"/>
      <rect x="31" y="25" width="1" height="1"/>
      <rect x="2" y="26" width="1" height="1"/>
      <rect x="3" y="26" width="1" height="1"/>
      <rect x="6" y="26" width="1" height="1"/>
      <rect x="8" y="26" width="1" height="1"/>
      <rect x="9" y="26" width="1" height="1"/>
      <rect x="14" y="26" width="1" height="1"/>
      <rect x="19" y="26" width="1" height="1"/>
      <rect x="23" y="26" width="1" height="1"/>
      <rect x="26" y="26" width="1" height="1"/>
      <rect x="27" y="26" width="1" height="1"/>
      <rect x="28" y="26" width="1" height="1"/>
      <rect x="29" y="26" width="1" height="1"/>
      <rect x="30" y="26" width="1" height="1"/>
      <rect x="33" y="26" width="1" height="1"/>
      <rect x="10" y="27" width="1" height="1"/>
      <rect x="14" y="27" width="1" height="1"/>
      <rect x="15" y="27" width="1" height="1"/>
      <rect x="16" y="27" width="1" height="1"/>
      <rect x="17" y="27" width="1" height="1"/>
      <rect x="18" y="27" width="1" height="1"/>
      <rect x="19" y="27" width="1" height="1"/>
      <rect x="21" y="27" width="1" height="1"/>
      <rect x="26" y="27" width="1" height="1"/>
      <rect x="30" y="27" width="1" height="1"/>
      <rect x="31" y="27" width="1" height="1"/>
      <rect x="32" y="27" width="1" height="1"/>
      <rect x="34" y="27" width="1" height="1"/>
      <rect x="2" y="28" width="1" height="1"/>
      <rect x="3" y="28" width="1" height="1"/>
      <rect x="4" y="28" width="1" height="1"/>
      <rect x="5" y="28" width="1" height="1"/>
      <rect x="6" y="28" width="1" height="1"/>
      <rect x="7" y="28" width="1" height="1"/>
      <rect x="8" y="28" width="1" height="1"/>
      <rect x="10" y="28" width="1" height="1"/>
      <rect x="11" y="28" width="1" height="1"/>
      <rect x="13" y="28" width="1" height="1"/>
      <rect x="14" y="28" width="1" height="1"/>
      <rect x="15" y="28" width="1" height="1"/>
      <rect x="16" y="28" width="1" height="1"/>
      <rect x="17" y="28" width="1" height="1"/>
      <rect x="20" y="28" width="1" height="1"/>
      <rect x="22" y="28" width="1" height="1"/>
      <rect x="23" y="28" width="1" height="1"/>
      <rect x="24" y="28" width="1" height="1"/>
      <rect x="25" y="28" width="1" height="1"/>
      <rect x="26" y="28" width="1" height="1"/>
      <rect x="28" y="28" width="1" height="1"/>
      <rect x="30" y="28" width="1" height="1"/>
      <rect x="34" y="28" width="1" height="1"/>
      <rect x="2" y="29" width="1" height="1"/>
      <rect x="8" y="29" width="1" height="1"/>
      <rect x="10" y="29" width="1" height="1"/>
      <rect x="12" y="29" width="1" height="1"/>
      <rect x="13" y="29" width="1" height="1"/>
      <rect x="14" y="29" width="1" height="1"/>
      <rect x="18" y="29" width="1" height="1"/>
      <rect x="19" y="29" width="1" height="1"/>
      <rect x="20" y="29" width="1" height="1"/>
      <rect x="21" y="29" width="1" height="1"/>
      <rect x="24" y="29" width="1" height="1"/>
      <rect x="26" y="29" width="1" height="1"/>
      <rect x="30" y="29" width="1" height="1"/>
      <rect x="31" y="29" width="1" height="1"/>
      <rect x="33" y="29" width="1" height="1"/>
      <rect x="34" y="29" width="1" height="1"/>
      <rect x="2" y="30" width="1" height="1"/>
      <rect x="4" y="30" width="1" height="1"/>
      <rect x="5" y="30" width="1" height="1"/>
      <rect x="6" y="30" width="1" height="1"/>
      <rect x="8" y="30" width="1" height="1"/>
      <rect x="12" y="30" width="1" height="1"/>
      <rect x="13" y="30" width="1" height="1"/>
      <rect x="14" y="30" width="1" height="1"/>
      <rect x="18" y="30" width="1" height="1"/>
      <rect x="19" y="30" width="1" height="1"/>
      <rect x="20" y="30" width="1" height="1"/>
      <rect x="23" y="30" width="1" height="1"/>
      <rect x="24" y="30" width="1" height="1"/>
      <rect x="25" y="30" width="1" height="1"/>
      <rect x="26" y="30" width="1" height="1"/>
      <rect x="27" y="30" width="1" height="1"/>
      <rect x="28" y="30" width="1" height="1"/>
      <rect x="29" y="30" width="1" height="1"/>
      <rect x="30" y="30" width="1" height="1"/>
      <rect x="2" y="31" width="1" height="1"/>
      <rect x="4" y="31" width="1" height="1"/>
      <rect x="5" y="31" width="1" height="1"/>
      <rect x="6" y="31" width="1" height="1"/>
      <rect x="8" y="31" width="1" height="1"/>
      <rect x="13" y="31" width="1" height="1"/>
      <rect x="14" y="31" width="1" height="1"/>
      <rect x="16" y="31" width="1" height="1"/>
      <rect x="17" y="31" width="1" height="1"/>
      <rect x="20" y="31" width="1" height="1"/>
      <rect x="24" y="31" width="1" height="1"/>
      <rect x="27" y="31" width="1" height="1"/>
      <rect x="29" y="31" width="1" height="1"/>
      <rect x="30" y="31" width="1" height="1"/>
      <rect x="33" y="31" width="1" height="1"/>
      <rect x="2" y="32" width="1" height="1"/>
      <rect x="4" y="32" width="1" height="1"/>
      <rect x="5" y="32" width="1" height="1"/>
      <rect x="6" y="32" width="1" height="1"/>
      <rect x="8" y="32" width="1" height="1"/>
      <rect x="10" y="32" width="1" height="1"/>
      <rect x="11" y="32" width="1" height="1"/>
      <rect x="13" y="32" width="1" height="1"/>
      <rect x="14" y="32" width="1" height="1"/>
      <rect x="15" y="32" width="1" height="1"/>
      <rect x="17" y="32" width="1" height="1"/>
      <rect x="18" y="32" width="1" height="1"/>
      <rect x="19" y="32" width="1" height="1"/>
      <rect x="22" y="32" width="1" height="1"/>
      <rect x="25" y="32" width="1" height="1"/>
      <rect x="26" y="32" width="1" height="1"/>
      <rect x="30" y="32" width="1" height="1"/>
      <rect x="32" y="32" width="1" height="1"/>
      <rect x="33" y="32" width="1" height="1"/>
      <rect x="34" y="32" width="1" height="1"/>
      <rect x="2" y="33" width="1" height="1"/>
      <rect x="8" y="33" width="1" height="1"/>
      <rect x="11" y="33" width="1" height="1"/>
      <rect x="12" y="33" width="1" height="1"/>
      <rect x="14" y="33" width="1" height="1"/>
      <rect x="15" y="33" width="1" height="1"/>
      <rect x="17" y="33" width="1" height="1"/>
      <rect x="18" y="33" width="1" height="1"/>
      <rect x="20" y="33" width="1" height="1"/>
      <rect x="21" y="33" width="1" height="1"/>
      <rect x="24" y="33" width="1" height="1"/>
      <rect x="26" y="33" width="1" height="1"/>
      <rect x="2" y="34" width="1" height="1"/>
      <rect x="3" y="34" width="1" height="1"/>
      <rect x="4" y="34" width="1" height="1"/>
      <rect x="5" y="34" width="1" height="1"/>
      <rect x="6" y="34" width="1" height="1"/>
      <rect x="7" y="34" width="1" height="1"/>
      <rect x="8" y="34" width="1" height="1"/>
      <rect x="11" y="34" width="1" height="1"/>
      <rect x="15" y="34" width="1" height="1"/>
      <rect x="23" y="34" width="1" height="1"/>
      <rect x="26" y="34" width="1" height="1"/>
      <rect x="30" y="34" width="1" height="1"/>
      <rect x="32" y="34" width="1" height="1"/>
      <rect x="34" y="34" width="1" height="1"/>
    </g>
  </g>

  <circle cx="280.00" cy="183.00" r="34.89" fill="#141312"/>
  <use xlink:href="#cclogo" transform="translate(236.00, 139.00) scale(0.1719)"/>

  <text x="280" y="344.00" text-anchor="middle"
        font-family="'Inter', -apple-system, BlinkMacSystemFont, 'Segoe UI', sans-serif"
        font-size="26.00" font-weight="500" fill="#f0ede6"
        letter-spacing="3.00">OPEN SOURCE  ·  ANDROID</text>

  <text x="280" y="401.00" text-anchor="middle"
        font-family="'Inter', -apple-system, BlinkMacSystemFont, 'Segoe UI', sans-serif"
        font-size="34.00" font-weight="500"
        letter-spacing="4.00">
    <tspan fill="#e07a4f" font-weight="700">KILTER BOARD</tspan><tspan dx="14.00" fill="#f0ede6">APP</tspan>
  </text>

  <text x="280" y="466.00" text-anchor="middle"
        font-family="'Inter', -apple-system, BlinkMacSystemFont, 'Segoe UI', sans-serif"
        font-size="46.00" font-weight="600" fill="#f0ede6"
        letter-spacing="0.50">cruxcoach.org</text>

</svg>
