<?xml version="1.0" encoding="UTF-8"?>
<!--
  CruxCoach community sticker — square 50 mm (PREVIEW)
  Layout: logo-above
  QR: V2/M, 29×29 (border 2), 0.69 mm/module
  Print files for round and square share identical content — printer cuts to selected shape.
-->
<svg xmlns="http://www.w3.org/2000/svg"
     xmlns:xlink="http://www.w3.org/1999/xlink"
     width="56mm" height="56mm"
     viewBox="0 0 560 560">

  <defs>
    <radialGradient id="gL" gradientUnits="userSpaceOnUse" cx="256" cy="256" r="210">
      <stop offset="40%" stop-color="#FF8C2A"/>
      <stop offset="100%" stop-color="#B84400"/>
    </radialGradient>
    <radialGradient id="gR" gradientUnits="userSpaceOnUse" cx="256" cy="256" r="210">
      <stop offset="40%" stop-color="#E05800"/>
      <stop offset="100%" stop-color="#8C3000"/>
    </radialGradient>
    <radialGradient id="gX" gradientUnits="userSpaceOnUse" cx="256" cy="256" r="80">
      <stop offset="0%" stop-color="#FFD080"/>
      <stop offset="100%" stop-color="#E08A00"/>
    </radialGradient>
    <g id="cclogo">
      <path d="M 252,56 A 200,200 0 1 0 248,456 L 248,384 A 128,128 0 1 1 252,128 Z" fill="url(#gL)"/>
      <path d="M 260,456 A 200,200 0 1 0 264,56 L 264,128 A 128,128 0 1 1 260,384 Z" fill="url(#gR)"/>
      <polygon points="192,214 214,192 256,234 298,192 320,214 274,256 320,298 298,320 256,278 214,320 192,298 238,256"
               fill="url(#gX)" stroke="#FFFFFF" stroke-width="1" stroke-opacity="0.15"/>
    </g>
  </defs>

  <rect x="30" y="30" width="500" height="500" rx="20" ry="20" fill="#141312"/>

  <use xlink:href="#cclogo" transform="translate(218.56, 36.00) scale(0.2400)"/>

  <rect x="178.00" y="161.00" width="204.00" height="204.00"
        rx="3.00" ry="3.00" fill="#f0ede6"/>

  <g transform="translate(180.00, 163.00) scale(6.8966)">
    <rect width="29" height="29" fill="#f0ede6"/>
    <g fill="#141312" shape-rendering="crispEdges">
      <rect x="2" y="2" width="1" height="1"/>
      <rect x="3" y="2" width="1" height="1"/>
      <rect x="4" y="2" width="1" height="1"/>
      <rect x="5" y="2" width="1" height="1"/>
      <rect x="6" y="2" width="1" height="1"/>
      <rect x="7" y="2" width="1" height="1"/>
      <rect x="8" y="2" width="1" height="1"/>
      <rect x="10" y="2" width="1" height="1"/>
      <rect x="11" y="2" width="1" height="1"/>
      <rect x="12" y="2" width="1" height="1"/>
      <rect x="16" y="2" width="1" height="1"/>
      <rect x="18" y="2" width="1" height="1"/>
      <rect x="20" y="2" width="1" height="1"/>
      <rect x="21" y="2" width="1" height="1"/>
      <rect x="22" y="2" width="1" height="1"/>
      <rect x="23" y="2" width="1" height="1"/>
      <rect x="24" y="2" width="1" height="1"/>
      <rect x="25" y="2" width="1" height="1"/>
      <rect x="26" y="2" width="1" height="1"/>
      <rect x="2" y="3" width="1" height="1"/>
      <rect x="8" y="3" width="1" height="1"/>
      <rect x="12" y="3" width="1" height="1"/>
      <rect x="13" y="3" width="1" height="1"/>
      <rect x="14" y="3" width="1" height="1"/>
      <rect x="15" y="3" width="1" height="1"/>
      <rect x="16" y="3" width="1" height="1"/>
      <rect x="20" y="3" width="1" height="1"/>
      <rect x="26" y="3" width="1" height="1"/>
      <rect x="2" y="4" width="1" height="1"/>
      <rect x="4" y="4" width="1" height="1"/>
      <rect x="5" y="4" width="1" height="1"/>
      <rect x="6" y="4" width="1" height="1"/>
      <rect x="8" y="4" width="1" height="1"/>
      <rect x="10" y="4" width="1" height="1"/>
      <rect x="11" y="4" width="1" height="1"/>
      <rect x="12" y="4" width="1" height="1"/>
      <rect x="13" y="4" width="1" height="1"/>
      <rect x="15" y="4" width="1" height="1"/>
      <rect x="16" y="4" width="1" height="1"/>
      <rect x="17" y="4" width="1" height="1"/>
      <rect x="18" y="4" width="1" height="1"/>
      <rect x="20" y="4" width="1" height="1"/>
      <rect x="22" y="4" width="1" height="1"/>
      <rect x="23" y="4" width="1" height="1"/>
      <rect x="24" y="4" width="1" height="1"/>
      <rect x="26" y="4" width="1" height="1"/>
      <rect x="2" y="5" width="1" height="1"/>
      <rect x="4" y="5" width="1" height="1"/>
      <rect x="5" y="5" width="1" height="1"/>
      <rect x="6" y="5" width="1" height="1"/>
      <rect x="8" y="5" width="1" height="1"/>
      <rect x="13" y="5" width="1" height="1"/>
      <rect x="14" y="5" width="1" height="1"/>
      <rect x="15" y="5" width="1" height="1"/>
      <rect x="16" y="5" width="1" height="1"/>
      <rect x="17" y="5" width="1" height="1"/>
      <rect x="20" y="5" width="1" height="1"/>
      <rect x="22" y="5" width="1" height="1"/>
      <rect x="23" y="5" width="1" height="1"/>
      <rect x="24" y="5" width="1" height="1"/>
      <rect x="26" y="5" width="1" height="1"/>
      <rect x="2" y="6" width="1" height="1"/>
      <rect x="4" y="6" width="1" height="1"/>
      <rect x="5" y="6" width="1" height="1"/>
      <rect x="6" y="6" width="1" height="1"/>
      <rect x="8" y="6" width="1" height="1"/>
      <rect x="13" y="6" width="1" height="1"/>
      <rect x="14" y="6" width="1" height="1"/>
      <rect x="16" y="6" width="1" height="1"/>
      <rect x="20" y="6" width="1" height="1"/>
      <rect x="22" y="6" width="1" height="1"/>
      <rect x="23" y="6" width="1" height="1"/>
      <rect x="24" y="6" width="1" height="1"/>
      <rect x="26" y="6" width="1" height="1"/>
      <rect x="2" y="7" width="1" height="1"/>
      <rect x="8" y="7" width="1" height="1"/>
      <rect x="10" y="7" width="1" height="1"/>
      <rect x="14" y="7" width="1" height="1"/>
      <rect x="15" y="7" width="1" height="1"/>
      <rect x="16" y="7" width="1" height="1"/>
      <rect x="18" y="7" width="1" height="1"/>
      <rect x="20" y="7" width="1" height="1"/>
      <rect x="26" y="7" width="1" height="1"/>
      <rect x="2" y="8" width="1" height="1"/>
      <rect x="3" y="8" width="1" height="1"/>
      <rect x="4" y="8" width="1" height="1"/>
      <rect x="5" y="8" width="1" height="1"/>
      <rect x="6" y="8" width="1" height="1"/>
      <rect x="7" y="8" width="1" height="1"/>
      <rect x="8" y="8" width="1" height="1"/>
      <rect x="10" y="8" width="1" height="1"/>
      <rect x="12" y="8" width="1" height="1"/>
      <rect x="14" y="8" width="1" height="1"/>
      <rect x="16" y="8" width="1" height="1"/>
      <rect x="18" y="8" width="1" height="1"/>
      <rect x="20" y="8" width="1" height="1"/>
      <rect x="21" y="8" width="1" height="1"/>
      <rect x="22" y="8" width="1" height="1"/>
      <rect x="23" y="8" width="1" height="1"/>
      <rect x="24" y="8" width="1" height="1"/>
      <rect x="25" y="8" width="1" height="1"/>
      <rect x="26" y="8" width="1" height="1"/>
      <rect x="11" y="9" width="1" height="1"/>
      <rect x="13" y="9" width="1" height="1"/>
      <rect x="16" y="9" width="1" height="1"/>
      <rect x="17" y="9" width="1" height="1"/>
      <rect x="2" y="10" width="1" height="1"/>
      <rect x="4" y="10" width="1" height="1"/>
      <rect x="8" y="10" width="1" height="1"/>
      <rect x="9" y="10" width="1" height="1"/>
      <rect x="12" y="10" width="1" height="1"/>
      <rect x="17" y="10" width="1" height="1"/>
      <rect x="18" y="10" width="1" height="1"/>
      <rect x="21" y="10" width="1" height="1"/>
      <rect x="24" y="10" width="1" height="1"/>
      <rect x="26" y="10" width="1" height="1"/>
      <rect x="2" y="11" width="1" height="1"/>
      <rect x="5" y="11" width="1" height="1"/>
      <rect x="6" y="11" width="1" height="1"/>
      <rect x="10" y="11" width="1" height="1"/>
      <rect x="11" y="11" width="1" height="1"/>
      <rect x="14" y="11" width="1" height="1"/>
      <rect x="16" y="11" width="1" height="1"/>
      <rect x="17" y="11" width="1" height="1"/>
      <rect x="18" y="11" width="1" height="1"/>
      <rect x="19" y="11" width="1" height="1"/>
      <rect x="20" y="11" width="1" height="1"/>
      <rect x="21" y="11" width="1" height="1"/>
      <rect x="23" y="11" width="1" height="1"/>
      <rect x="25" y="11" width="1" height="1"/>
      <rect x="26" y="11" width="1" height="1"/>
      <rect x="2" y="12" width="1" height="1"/>
      <rect x="3" y="12" width="1" height="1"/>
      <rect x="4" y="12" width="1" height="1"/>
      <rect x="6" y="12" width="1" height="1"/>
      <rect x="7" y="12" width="1" height="1"/>
      <rect x="8" y="12" width="1" height="1"/>
      <rect x="9" y="12" width="1" height="1"/>
      <rect x="11" y="12" width="1" height="1"/>
      <rect x="13" y="12" width="1" height="1"/>
      <rect x="14" y="12" width="1" height="1"/>
      <rect x="16" y="12" width="1" height="1"/>
      <rect x="17" y="12" width="1" height="1"/>
      <rect x="19" y="12" width="1" height="1"/>
      <rect x="20" y="12" width="1" height="1"/>
      <rect x="23" y="12" width="1" height="1"/>
      <rect x="24" y="12" width="1" height="1"/>
      <rect x="26" y="12" width="1" height="1"/>
      <rect x="4" y="13" width="1" height="1"/>
      <rect x="6" y="13" width="1" height="1"/>
      <rect x="9" y="13" width="1" height="1"/>
      <rect x="10" y="13" width="1" height="1"/>
      <rect x="14" y="13" width="1" height="1"/>
      <rect x="20" y="13" width="1" height="1"/>
      <rect x="23" y="13" width="1" height="1"/>
      <rect x="2" y="14" width="1" height="1"/>
      <rect x="4" y="14" width="1" height="1"/>
      <rect x="5" y="14" width="1" height="1"/>
      <rect x="6" y="14" width="1" height="1"/>
      <rect x="7" y="14" width="1" height="1"/>
      <rect x="8" y="14" width="1" height="1"/>
      <rect x="10" y="14" width="1" height="1"/>
      <rect x="11" y="14" width="1" height="1"/>
      <rect x="12" y="14" width="1" height="1"/>
      <rect x="13" y="14" width="1" height="1"/>
      <rect x="17" y="14" width="1" height="1"/>
      <rect x="18" y="14" width="1" height="1"/>
      <rect x="20" y="14" width="1" height="1"/>
      <rect x="21" y="14" width="1" height="1"/>
      <rect x="26" y="14" width="1" height="1"/>
      <rect x="4" y="15" width="1" height="1"/>
      <rect x="7" y="15" width="1" height="1"/>
      <rect x="9" y="15" width="1" height="1"/>
      <rect x="10" y="15" width="1" height="1"/>
      <rect x="12" y="15" width="1" height="1"/>
      <rect x="17" y="15" width="1" height="1"/>
      <rect x="18" y="15" width="1" height="1"/>
      <rect x="19" y="15" width="1" height="1"/>
      <rect x="20" y="15" width="1" height="1"/>
      <rect x="21" y="15" width="1" height="1"/>
      <rect x="25" y="15" width="1" height="1"/>
      <rect x="26" y="15" width="1" height="1"/>
      <rect x="2" y="16" width="1" height="1"/>
      <rect x="3" y="16" width="1" height="1"/>
      <rect x="4" y="16" width="1" height="1"/>
      <rect x="6" y="16" width="1" height="1"/>
      <rect x="7" y="16" width="1" height="1"/>
      <rect x="8" y="16" width="1" height="1"/>
      <rect x="9" y="16" width="1" height="1"/>
      <rect x="13" y="16" width="1" height="1"/>
      <rect x="17" y="16" width="1" height="1"/>
      <rect x="20" y="16" width="1" height="1"/>
      <rect x="23" y="16" width="1" height="1"/>
      <rect x="24" y="16" width="1" height="1"/>
      <rect x="26" y="16" width="1" height="1"/>
      <rect x="9" y="17" width="1" height="1"/>
      <rect x="16" y="17" width="1" height="1"/>
      <rect x="17" y="17" width="1" height="1"/>
      <rect x="18" y="17" width="1" height="1"/>
      <rect x="19" y="17" width="1" height="1"/>
      <rect x="21" y="17" width="1" height="1"/>
      <rect x="22" y="17" width="1" height="1"/>
      <rect x="23" y="17" width="1" height="1"/>
      <rect x="2" y="18" width="1" height="1"/>
      <rect x="3" y="18" width="1" height="1"/>
      <rect x="6" y="18" width="1" height="1"/>
      <rect x="7" y="18" width="1" height="1"/>
      <rect x="8" y="18" width="1" height="1"/>
      <rect x="9" y="18" width="1" height="1"/>
      <rect x="12" y="18" width="1" height="1"/>
      <rect x="13" y="18" width="1" height="1"/>
      <rect x="14" y="18" width="1" height="1"/>
      <rect x="15" y="18" width="1" height="1"/>
      <rect x="16" y="18" width="1" height="1"/>
      <rect x="18" y="18" width="1" height="1"/>
      <rect x="19" y="18" width="1" height="1"/>
      <rect x="20" y="18" width="1" height="1"/>
      <rect x="21" y="18" width="1" height="1"/>
      <rect x="22" y="18" width="1" height="1"/>
      <rect x="25" y="18" width="1" height="1"/>
      <rect x="10" y="19" width="1" height="1"/>
      <rect x="14" y="19" width="1" height="1"/>
      <rect x="18" y="19" width="1" height="1"/>
      <rect x="22" y="19" width="1" height="1"/>
      <rect x="26" y="19" width="1" height="1"/>
      <rect x="2" y="20" width="1" height="1"/>
      <rect x="3" y="20" width="1" height="1"/>
      <rect x="4" y="20" width="1" height="1"/>
      <rect x="5" y="20" width="1" height="1"/>
      <rect x="6" y="20" width="1" height="1"/>
      <rect x="7" y="20" width="1" height="1"/>
      <rect x="8" y="20" width="1" height="1"/>
      <rect x="10" y="20" width="1" height="1"/>
      <rect x="12" y="20" width="1" height="1"/>
      <rect x="14" y="20" width="1" height="1"/>
      <rect x="15" y="20" width="1" height="1"/>
      <rect x="16" y="20" width="1" height="1"/>
      <rect x="18" y="20" width="1" height="1"/>
      <rect x="20" y="20" width="1" height="1"/>
      <rect x="22" y="20" width="1" height="1"/>
      <rect x="26" y="20" width="1" height="1"/>
      <rect x="2" y="21" width="1" height="1"/>
      <rect x="8" y="21" width="1" height="1"/>
      <rect x="11" y="21" width="1" height="1"/>
      <rect x="13" y="21" width="1" height="1"/>
      <rect x="14" y="21" width="1" height="1"/>
      <rect x="17" y="21" width="1" height="1"/>
      <rect x="18" y="21" width="1" height="1"/>
      <rect x="22" y="21" width="1" height="1"/>
      <rect x="25" y="21" width="1" height="1"/>
      <rect x="2" y="22" width="1" height="1"/>
      <rect x="4" y="22" width="1" height="1"/>
      <rect x="5" y="22" width="1" height="1"/>
      <rect x="6" y="22" width="1" height="1"/>
      <rect x="8" y="22" width="1" height="1"/>
      <rect x="11" y="22" width="1" height="1"/>
      <rect x="12" y="22" width="1" height="1"/>
      <rect x="15" y="22" width="1" height="1"/>
      <rect x="16" y="22" width="1" height="1"/>
      <rect x="17" y="22" width="1" height="1"/>
      <rect x="18" y="22" width="1" height="1"/>
      <rect x="19" y="22" width="1" height="1"/>
      <rect x="20" y="22" width="1" height="1"/>
      <rect x="21" y="22" width="1" height="1"/>
      <rect x="22" y="22" width="1" height="1"/>
      <rect x="26" y="22" width="1" height="1"/>
      <rect x="2" y="23" width="1" height="1"/>
      <rect x="4" y="23" width="1" height="1"/>
      <rect x="5" y="23" width="1" height="1"/>
      <rect x="6" y="23" width="1" height="1"/>
      <rect x="8" y="23" width="1" height="1"/>
      <rect x="11" y="23" width="1" height="1"/>
      <rect x="12" y="23" width="1" height="1"/>
      <rect x="15" y="23" width="1" height="1"/>
      <rect x="17" y="23" width="1" height="1"/>
      <rect x="18" y="23" width="1" height="1"/>
      <rect x="19" y="23" width="1" height="1"/>
      <rect x="22" y="23" width="1" height="1"/>
      <rect x="24" y="23" width="1" height="1"/>
      <rect x="25" y="23" width="1" height="1"/>
      <rect x="2" y="24" width="1" height="1"/>
      <rect x="4" y="24" width="1" height="1"/>
      <rect x="5" y="24" width="1" height="1"/>
      <rect x="6" y="24" width="1" height="1"/>
      <rect x="8" y="24" width="1" height="1"/>
      <rect x="10" y="24" width="1" height="1"/>
      <rect x="13" y="24" width="1" height="1"/>
      <rect x="17" y="24" width="1" height="1"/>
      <rect x="18" y="24" width="1" height="1"/>
      <rect x="21" y="24" width="1" height="1"/>
      <rect x="22" y="24" width="1" height="1"/>
      <rect x="23" y="24" width="1" height="1"/>
      <rect x="25" y="24" width="1" height="1"/>
      <rect x="26" y="24" width="1" height="1"/>
      <rect x="2" y="25" width="1" height="1"/>
      <rect x="8" y="25" width="1" height="1"/>
      <rect x="15" y="25" width="1" height="1"/>
      <rect x="18" y="25" width="1" height="1"/>
      <rect x="20" y="25" width="1" height="1"/>
      <rect x="21" y="25" width="1" height="1"/>
      <rect x="22" y="25" width="1" height="1"/>
      <rect x="2" y="26" width="1" height="1"/>
      <rect x="3" y="26" width="1" height="1"/>
      <rect x="4" y="26" width="1" height="1"/>
      <rect x="5" y="26" width="1" height="1"/>
      <rect x="6" y="26" width="1" height="1"/>
      <rect x="7" y="26" width="1" height="1"/>
      <rect x="8" y="26" width="1" height="1"/>
      <rect x="10" y="26" width="1" height="1"/>
      <rect x="11" y="26" width="1" height="1"/>
      <rect x="13" y="26" width="1" height="1"/>
      <rect x="14" y="26" width="1" height="1"/>
      <rect x="15" y="26" width="1" height="1"/>
      <rect x="18" y="26" width="1" height="1"/>
      <rect x="19" y="26" width="1" height="1"/>
      <rect x="20" y="26" width="1" height="1"/>
      <rect x="23" y="26" width="1" height="1"/>
      <rect x="26" y="26" width="1" height="1"/>
    </g>
  </g>

  <text x="280" y="398.00" text-anchor="middle"
        font-family="'Inter', -apple-system, BlinkMacSystemFont, 'Segoe UI', sans-serif"
        font-size="22.00" font-weight="500" fill="#f0ede6"
        letter-spacing="3.50">OPEN SOURCE  ·  ANDROID</text>

  <text x="280" y="425.00" text-anchor="middle"
        font-family="'Inter', -apple-system, BlinkMacSystemFont, 'Segoe UI', sans-serif"
        font-size="22.00" font-weight="500"
        letter-spacing="3.50">
    <tspan fill="#e07a4f" font-weight="700">KILTER BOARD</tspan><tspan fill="#f0ede6">  APP</tspan>
  </text>

  <text x="280" y="465.00" text-anchor="middle"
        font-family="'Inter', -apple-system, BlinkMacSystemFont, 'Segoe UI', sans-serif"
        font-size="32.00" font-weight="600" fill="#f0ede6"
        letter-spacing="0.50">cruxcoach.org</text>

</svg>
