<?xml version="1.0" encoding="UTF-8"?>
<!--
  CruxCoach community sticker — round 60 mm  (LOGO-CENTER variant)
  PRINT — rectangular canvas with 3 mm bleed

  This is a separate sticker design where the CC+X logo is embedded in the centre
  of the QR code instead of sitting at the top of the sticker. The QR uses error
  correction level H (30 % redundancy) so the masked modules under the logo are
  recoverable — scan reliability is preserved.

  QR encoding:  V3/H, 33×33 visible (with 2-module quiet zone)
  QR module:    0.80 mm
  Logo overlay: ~9×9 modules covered (≈ 13 % of data area; H budget covers up to 30 %)

  Layout:
    1. QR (top half, with embedded logo in centre)
    2. "OPEN SOURCE · ANDROID"  — line 1, font 30 (was 22 in non-logo-center variant)
    3. "KILTER BOARD APP"       — line 2, font 30, "KILTER BOARD" orange
    4. cruxcoach.org            — URL CTA, font 40 (was 32)
-->
<svg xmlns="http://www.w3.org/2000/svg"
     xmlns:xlink="http://www.w3.org/1999/xlink"
     width="66mm" height="66mm"
     viewBox="0 0 660 660">

  <defs>
    <radialGradient id="gL" gradientUnits="userSpaceOnUse" cx="256" cy="256" r="210">
      <stop offset="40%" stop-color="#FF8C2A"/>
      <stop offset="100%" stop-color="#B84400"/>
    </radialGradient>
    <radialGradient id="gR" gradientUnits="userSpaceOnUse" cx="256" cy="256" r="210">
      <stop offset="40%" stop-color="#E05800"/>
      <stop offset="100%" stop-color="#8C3000"/>
    </radialGradient>
    <radialGradient id="gX" gradientUnits="userSpaceOnUse" cx="256" cy="256" r="80">
      <stop offset="0%" stop-color="#FFD080"/>
      <stop offset="100%" stop-color="#E08A00"/>
    </radialGradient>
    <g id="cclogo">
      <path d="M 252,56 A 200,200 0 1 0 248,456 L 248,384 A 128,128 0 1 1 252,128 Z" fill="url(#gL)"/>
      <path d="M 260,456 A 200,200 0 1 0 264,56 L 264,128 A 128,128 0 1 1 260,384 Z" fill="url(#gR)"/>
      <polygon points="192,214 214,192 256,234 298,192 320,214 274,256 320,298 298,320 256,278 214,320 192,298 238,256"
               fill="url(#gX)" stroke="#FFFFFF" stroke-width="1" stroke-opacity="0.15"/>
    </g>
  </defs>

  <rect width="660" height="660" fill="#141312"/>
  <circle cx="330" cy="330" r="280" fill="none" stroke="#2c2925" stroke-width="1.80"/>

  <!-- QR cream rounded frame (very thin — 2 unit padding) -->
  <rect x="195.60" y="93.60" width="268.80" height="268.80"
        rx="3.60" ry="3.60" fill="#f0ede6"/>

  <!-- QR matrix -->
  <g transform="translate(198.00, 96.00) scale(8.0000)">
    <rect width="33" height="33" fill="#f0ede6"/>
    <g fill="#141312" shape-rendering="crispEdges">
      <rect x="2" y="2" width="1" height="1"/>
      <rect x="3" y="2" width="1" height="1"/>
      <rect x="4" y="2" width="1" height="1"/>
      <rect x="5" y="2" width="1" height="1"/>
      <rect x="6" y="2" width="1" height="1"/>
      <rect x="7" y="2" width="1" height="1"/>
      <rect x="8" y="2" width="1" height="1"/>
      <rect x="12" y="2" width="1" height="1"/>
      <rect x="16" y="2" width="1" height="1"/>
      <rect x="17" y="2" width="1" height="1"/>
      <rect x="18" y="2" width="1" height="1"/>
      <rect x="20" y="2" width="1" height="1"/>
      <rect x="22" y="2" width="1" height="1"/>
      <rect x="24" y="2" width="1" height="1"/>
      <rect x="25" y="2" width="1" height="1"/>
      <rect x="26" y="2" width="1" height="1"/>
      <rect x="27" y="2" width="1" height="1"/>
      <rect x="28" y="2" width="1" height="1"/>
      <rect x="29" y="2" width="1" height="1"/>
      <rect x="30" y="2" width="1" height="1"/>
      <rect x="2" y="3" width="1" height="1"/>
      <rect x="8" y="3" width="1" height="1"/>
      <rect x="11" y="3" width="1" height="1"/>
      <rect x="12" y="3" width="1" height="1"/>
      <rect x="13" y="3" width="1" height="1"/>
      <rect x="14" y="3" width="1" height="1"/>
      <rect x="16" y="3" width="1" height="1"/>
      <rect x="19" y="3" width="1" height="1"/>
      <rect x="20" y="3" width="1" height="1"/>
      <rect x="21" y="3" width="1" height="1"/>
      <rect x="22" y="3" width="1" height="1"/>
      <rect x="24" y="3" width="1" height="1"/>
      <rect x="30" y="3" width="1" height="1"/>
      <rect x="2" y="4" width="1" height="1"/>
      <rect x="4" y="4" width="1" height="1"/>
      <rect x="5" y="4" width="1" height="1"/>
      <rect x="6" y="4" width="1" height="1"/>
      <rect x="8" y="4" width="1" height="1"/>
      <rect x="11" y="4" width="1" height="1"/>
      <rect x="12" y="4" width="1" height="1"/>
      <rect x="14" y="4" width="1" height="1"/>
      <rect x="17" y="4" width="1" height="1"/>
      <rect x="20" y="4" width="1" height="1"/>
      <rect x="22" y="4" width="1" height="1"/>
      <rect x="24" y="4" width="1" height="1"/>
      <rect x="26" y="4" width="1" height="1"/>
      <rect x="27" y="4" width="1" height="1"/>
      <rect x="28" y="4" width="1" height="1"/>
      <rect x="30" y="4" width="1" height="1"/>
      <rect x="2" y="5" width="1" height="1"/>
      <rect x="4" y="5" width="1" height="1"/>
      <rect x="5" y="5" width="1" height="1"/>
      <rect x="6" y="5" width="1" height="1"/>
      <rect x="8" y="5" width="1" height="1"/>
      <rect x="11" y="5" width="1" height="1"/>
      <rect x="12" y="5" width="1" height="1"/>
      <rect x="14" y="5" width="1" height="1"/>
      <rect x="16" y="5" width="1" height="1"/>
      <rect x="19" y="5" width="1" height="1"/>
      <rect x="21" y="5" width="1" height="1"/>
      <rect x="22" y="5" width="1" height="1"/>
      <rect x="24" y="5" width="1" height="1"/>
      <rect x="26" y="5" width="1" height="1"/>
      <rect x="27" y="5" width="1" height="1"/>
      <rect x="28" y="5" width="1" height="1"/>
      <rect x="30" y="5" width="1" height="1"/>
      <rect x="2" y="6" width="1" height="1"/>
      <rect x="4" y="6" width="1" height="1"/>
      <rect x="5" y="6" width="1" height="1"/>
      <rect x="6" y="6" width="1" height="1"/>
      <rect x="8" y="6" width="1" height="1"/>
      <rect x="10" y="6" width="1" height="1"/>
      <rect x="12" y="6" width="1" height="1"/>
      <rect x="13" y="6" width="1" height="1"/>
      <rect x="14" y="6" width="1" height="1"/>
      <rect x="19" y="6" width="1" height="1"/>
      <rect x="20" y="6" width="1" height="1"/>
      <rect x="21" y="6" width="1" height="1"/>
      <rect x="24" y="6" width="1" height="1"/>
      <rect x="26" y="6" width="1" height="1"/>
      <rect x="27" y="6" width="1" height="1"/>
      <rect x="28" y="6" width="1" height="1"/>
      <rect x="30" y="6" width="1" height="1"/>
      <rect x="2" y="7" width="1" height="1"/>
      <rect x="8" y="7" width="1" height="1"/>
      <rect x="13" y="7" width="1" height="1"/>
      <rect x="16" y="7" width="1" height="1"/>
      <rect x="17" y="7" width="1" height="1"/>
      <rect x="18" y="7" width="1" height="1"/>
      <rect x="21" y="7" width="1" height="1"/>
      <rect x="24" y="7" width="1" height="1"/>
      <rect x="30" y="7" width="1" height="1"/>
      <rect x="2" y="8" width="1" height="1"/>
      <rect x="3" y="8" width="1" height="1"/>
      <rect x="4" y="8" width="1" height="1"/>
      <rect x="5" y="8" width="1" height="1"/>
      <rect x="6" y="8" width="1" height="1"/>
      <rect x="7" y="8" width="1" height="1"/>
      <rect x="8" y="8" width="1" height="1"/>
      <rect x="10" y="8" width="1" height="1"/>
      <rect x="12" y="8" width="1" height="1"/>
      <rect x="14" y="8" width="1" height="1"/>
      <rect x="16" y="8" width="1" height="1"/>
      <rect x="18" y="8" width="1" height="1"/>
      <rect x="20" y="8" width="1" height="1"/>
      <rect x="22" y="8" width="1" height="1"/>
      <rect x="24" y="8" width="1" height="1"/>
      <rect x="25" y="8" width="1" height="1"/>
      <rect x="26" y="8" width="1" height="1"/>
      <rect x="27" y="8" width="1" height="1"/>
      <rect x="28" y="8" width="1" height="1"/>
      <rect x="29" y="8" width="1" height="1"/>
      <rect x="30" y="8" width="1" height="1"/>
      <rect x="10" y="9" width="1" height="1"/>
      <rect x="11" y="9" width="1" height="1"/>
      <rect x="16" y="9" width="1" height="1"/>
      <rect x="18" y="9" width="1" height="1"/>
      <rect x="19" y="9" width="1" height="1"/>
      <rect x="20" y="9" width="1" height="1"/>
      <rect x="21" y="9" width="1" height="1"/>
      <rect x="22" y="9" width="1" height="1"/>
      <rect x="4" y="10" width="1" height="1"/>
      <rect x="5" y="10" width="1" height="1"/>
      <rect x="8" y="10" width="1" height="1"/>
      <rect x="9" y="10" width="1" height="1"/>
      <rect x="10" y="10" width="1" height="1"/>
      <rect x="11" y="10" width="1" height="1"/>
      <rect x="12" y="10" width="1" height="1"/>
      <rect x="14" y="10" width="1" height="1"/>
      <rect x="16" y="10" width="1" height="1"/>
      <rect x="17" y="10" width="1" height="1"/>
      <rect x="21" y="10" width="1" height="1"/>
      <rect x="23" y="10" width="1" height="1"/>
      <rect x="24" y="10" width="1" height="1"/>
      <rect x="26" y="10" width="1" height="1"/>
      <rect x="2" y="11" width="1" height="1"/>
      <rect x="3" y="11" width="1" height="1"/>
      <rect x="5" y="11" width="1" height="1"/>
      <rect x="10" y="11" width="1" height="1"/>
      <rect x="12" y="11" width="1" height="1"/>
      <rect x="15" y="11" width="1" height="1"/>
      <rect x="16" y="11" width="1" height="1"/>
      <rect x="17" y="11" width="1" height="1"/>
      <rect x="23" y="11" width="1" height="1"/>
      <rect x="24" y="11" width="1" height="1"/>
      <rect x="25" y="11" width="1" height="1"/>
      <rect x="26" y="11" width="1" height="1"/>
      <rect x="27" y="11" width="1" height="1"/>
      <rect x="28" y="11" width="1" height="1"/>
      <rect x="30" y="11" width="1" height="1"/>
      <rect x="4" y="12" width="1" height="1"/>
      <rect x="6" y="12" width="1" height="1"/>
      <rect x="8" y="12" width="1" height="1"/>
      <rect x="10" y="12" width="1" height="1"/>
      <rect x="11" y="12" width="1" height="1"/>
      <rect x="12" y="12" width="1" height="1"/>
      <rect x="13" y="12" width="1" height="1"/>
      <rect x="15" y="12" width="1" height="1"/>
      <rect x="17" y="12" width="1" height="1"/>
      <rect x="18" y="12" width="1" height="1"/>
      <rect x="19" y="12" width="1" height="1"/>
      <rect x="22" y="12" width="1" height="1"/>
      <rect x="24" y="12" width="1" height="1"/>
      <rect x="25" y="12" width="1" height="1"/>
      <rect x="26" y="12" width="1" height="1"/>
      <rect x="27" y="12" width="1" height="1"/>
      <rect x="29" y="12" width="1" height="1"/>
      <rect x="3" y="13" width="1" height="1"/>
      <rect x="6" y="13" width="1" height="1"/>
      <rect x="9" y="13" width="1" height="1"/>
      <rect x="15" y="13" width="1" height="1"/>
      <rect x="17" y="13" width="1" height="1"/>
      <rect x="18" y="13" width="1" height="1"/>
      <rect x="19" y="13" width="1" height="1"/>
      <rect x="20" y="13" width="1" height="1"/>
      <rect x="21" y="13" width="1" height="1"/>
      <rect x="25" y="13" width="1" height="1"/>
      <rect x="26" y="13" width="1" height="1"/>
      <rect x="30" y="13" width="1" height="1"/>
      <rect x="3" y="14" width="1" height="1"/>
      <rect x="5" y="14" width="1" height="1"/>
      <rect x="7" y="14" width="1" height="1"/>
      <rect x="8" y="14" width="1" height="1"/>
      <rect x="12" y="14" width="1" height="1"/>
      <rect x="14" y="14" width="1" height="1"/>
      <rect x="19" y="14" width="1" height="1"/>
      <rect x="20" y="14" width="1" height="1"/>
      <rect x="22" y="14" width="1" height="1"/>
      <rect x="23" y="14" width="1" height="1"/>
      <rect x="25" y="14" width="1" height="1"/>
      <rect x="28" y="14" width="1" height="1"/>
      <rect x="29" y="14" width="1" height="1"/>
      <rect x="30" y="14" width="1" height="1"/>
      <rect x="9" y="15" width="1" height="1"/>
      <rect x="10" y="15" width="1" height="1"/>
      <rect x="11" y="15" width="1" height="1"/>
      <rect x="17" y="15" width="1" height="1"/>
      <rect x="18" y="15" width="1" height="1"/>
      <rect x="19" y="15" width="1" height="1"/>
      <rect x="21" y="15" width="1" height="1"/>
      <rect x="24" y="15" width="1" height="1"/>
      <rect x="25" y="15" width="1" height="1"/>
      <rect x="27" y="15" width="1" height="1"/>
      <rect x="28" y="15" width="1" height="1"/>
      <rect x="30" y="15" width="1" height="1"/>
      <rect x="2" y="16" width="1" height="1"/>
      <rect x="3" y="16" width="1" height="1"/>
      <rect x="6" y="16" width="1" height="1"/>
      <rect x="8" y="16" width="1" height="1"/>
      <rect x="9" y="16" width="1" height="1"/>
      <rect x="12" y="16" width="1" height="1"/>
      <rect x="14" y="16" width="1" height="1"/>
      <rect x="16" y="16" width="1" height="1"/>
      <rect x="17" y="16" width="1" height="1"/>
      <rect x="21" y="16" width="1" height="1"/>
      <rect x="22" y="16" width="1" height="1"/>
      <rect x="23" y="16" width="1" height="1"/>
      <rect x="25" y="16" width="1" height="1"/>
      <rect x="26" y="16" width="1" height="1"/>
      <rect x="27" y="16" width="1" height="1"/>
      <rect x="29" y="16" width="1" height="1"/>
      <rect x="30" y="16" width="1" height="1"/>
      <rect x="4" y="17" width="1" height="1"/>
      <rect x="7" y="17" width="1" height="1"/>
      <rect x="9" y="17" width="1" height="1"/>
      <rect x="10" y="17" width="1" height="1"/>
      <rect x="14" y="17" width="1" height="1"/>
      <rect x="15" y="17" width="1" height="1"/>
      <rect x="17" y="17" width="1" height="1"/>
      <rect x="19" y="17" width="1" height="1"/>
      <rect x="20" y="17" width="1" height="1"/>
      <rect x="21" y="17" width="1" height="1"/>
      <rect x="24" y="17" width="1" height="1"/>
      <rect x="26" y="17" width="1" height="1"/>
      <rect x="27" y="17" width="1" height="1"/>
      <rect x="30" y="17" width="1" height="1"/>
      <rect x="5" y="18" width="1" height="1"/>
      <rect x="8" y="18" width="1" height="1"/>
      <rect x="10" y="18" width="1" height="1"/>
      <rect x="18" y="18" width="1" height="1"/>
      <rect x="22" y="18" width="1" height="1"/>
      <rect x="23" y="18" width="1" height="1"/>
      <rect x="25" y="18" width="1" height="1"/>
      <rect x="26" y="18" width="1" height="1"/>
      <rect x="27" y="18" width="1" height="1"/>
      <rect x="3" y="19" width="1" height="1"/>
      <rect x="4" y="19" width="1" height="1"/>
      <rect x="5" y="19" width="1" height="1"/>
      <rect x="6" y="19" width="1" height="1"/>
      <rect x="7" y="19" width="1" height="1"/>
      <rect x="10" y="19" width="1" height="1"/>
      <rect x="13" y="19" width="1" height="1"/>
      <rect x="15" y="19" width="1" height="1"/>
      <rect x="16" y="19" width="1" height="1"/>
      <rect x="18" y="19" width="1" height="1"/>
      <rect x="20" y="19" width="1" height="1"/>
      <rect x="21" y="19" width="1" height="1"/>
      <rect x="23" y="19" width="1" height="1"/>
      <rect x="27" y="19" width="1" height="1"/>
      <rect x="2" y="20" width="1" height="1"/>
      <rect x="7" y="20" width="1" height="1"/>
      <rect x="8" y="20" width="1" height="1"/>
      <rect x="11" y="20" width="1" height="1"/>
      <rect x="12" y="20" width="1" height="1"/>
      <rect x="13" y="20" width="1" height="1"/>
      <rect x="14" y="20" width="1" height="1"/>
      <rect x="15" y="20" width="1" height="1"/>
      <rect x="16" y="20" width="1" height="1"/>
      <rect x="17" y="20" width="1" height="1"/>
      <rect x="22" y="20" width="1" height="1"/>
      <rect x="24" y="20" width="1" height="1"/>
      <rect x="26" y="20" width="1" height="1"/>
      <rect x="27" y="20" width="1" height="1"/>
      <rect x="4" y="21" width="1" height="1"/>
      <rect x="5" y="21" width="1" height="1"/>
      <rect x="10" y="21" width="1" height="1"/>
      <rect x="13" y="21" width="1" height="1"/>
      <rect x="15" y="21" width="1" height="1"/>
      <rect x="16" y="21" width="1" height="1"/>
      <rect x="17" y="21" width="1" height="1"/>
      <rect x="18" y="21" width="1" height="1"/>
      <rect x="19" y="21" width="1" height="1"/>
      <rect x="20" y="21" width="1" height="1"/>
      <rect x="21" y="21" width="1" height="1"/>
      <rect x="23" y="21" width="1" height="1"/>
      <rect x="24" y="21" width="1" height="1"/>
      <rect x="25" y="21" width="1" height="1"/>
      <rect x="26" y="21" width="1" height="1"/>
      <rect x="27" y="21" width="1" height="1"/>
      <rect x="28" y="21" width="1" height="1"/>
      <rect x="29" y="21" width="1" height="1"/>
      <rect x="3" y="22" width="1" height="1"/>
      <rect x="4" y="22" width="1" height="1"/>
      <rect x="6" y="22" width="1" height="1"/>
      <rect x="7" y="22" width="1" height="1"/>
      <rect x="8" y="22" width="1" height="1"/>
      <rect x="9" y="22" width="1" height="1"/>
      <rect x="10" y="22" width="1" height="1"/>
      <rect x="12" y="22" width="1" height="1"/>
      <rect x="15" y="22" width="1" height="1"/>
      <rect x="16" y="22" width="1" height="1"/>
      <rect x="17" y="22" width="1" height="1"/>
      <rect x="18" y="22" width="1" height="1"/>
      <rect x="21" y="22" width="1" height="1"/>
      <rect x="22" y="22" width="1" height="1"/>
      <rect x="23" y="22" width="1" height="1"/>
      <rect x="24" y="22" width="1" height="1"/>
      <rect x="25" y="22" width="1" height="1"/>
      <rect x="26" y="22" width="1" height="1"/>
      <rect x="27" y="22" width="1" height="1"/>
      <rect x="28" y="22" width="1" height="1"/>
      <rect x="29" y="22" width="1" height="1"/>
      <rect x="30" y="22" width="1" height="1"/>
      <rect x="10" y="23" width="1" height="1"/>
      <rect x="12" y="23" width="1" height="1"/>
      <rect x="13" y="23" width="1" height="1"/>
      <rect x="15" y="23" width="1" height="1"/>
      <rect x="17" y="23" width="1" height="1"/>
      <rect x="18" y="23" width="1" height="1"/>
      <rect x="19" y="23" width="1" height="1"/>
      <rect x="22" y="23" width="1" height="1"/>
      <rect x="26" y="23" width="1" height="1"/>
      <rect x="27" y="23" width="1" height="1"/>
      <rect x="29" y="23" width="1" height="1"/>
      <rect x="30" y="23" width="1" height="1"/>
      <rect x="2" y="24" width="1" height="1"/>
      <rect x="3" y="24" width="1" height="1"/>
      <rect x="4" y="24" width="1" height="1"/>
      <rect x="5" y="24" width="1" height="1"/>
      <rect x="6" y="24" width="1" height="1"/>
      <rect x="7" y="24" width="1" height="1"/>
      <rect x="8" y="24" width="1" height="1"/>
      <rect x="10" y="24" width="1" height="1"/>
      <rect x="12" y="24" width="1" height="1"/>
      <rect x="14" y="24" width="1" height="1"/>
      <rect x="18" y="24" width="1" height="1"/>
      <rect x="21" y="24" width="1" height="1"/>
      <rect x="22" y="24" width="1" height="1"/>
      <rect x="24" y="24" width="1" height="1"/>
      <rect x="26" y="24" width="1" height="1"/>
      <rect x="28" y="24" width="1" height="1"/>
      <rect x="29" y="24" width="1" height="1"/>
      <rect x="2" y="25" width="1" height="1"/>
      <rect x="8" y="25" width="1" height="1"/>
      <rect x="11" y="25" width="1" height="1"/>
      <rect x="13" y="25" width="1" height="1"/>
      <rect x="16" y="25" width="1" height="1"/>
      <rect x="22" y="25" width="1" height="1"/>
      <rect x="26" y="25" width="1" height="1"/>
      <rect x="30" y="25" width="1" height="1"/>
      <rect x="2" y="26" width="1" height="1"/>
      <rect x="4" y="26" width="1" height="1"/>
      <rect x="5" y="26" width="1" height="1"/>
      <rect x="6" y="26" width="1" height="1"/>
      <rect x="8" y="26" width="1" height="1"/>
      <rect x="13" y="26" width="1" height="1"/>
      <rect x="15" y="26" width="1" height="1"/>
      <rect x="18" y="26" width="1" height="1"/>
      <rect x="22" y="26" width="1" height="1"/>
      <rect x="23" y="26" width="1" height="1"/>
      <rect x="24" y="26" width="1" height="1"/>
      <rect x="25" y="26" width="1" height="1"/>
      <rect x="26" y="26" width="1" height="1"/>
      <rect x="27" y="26" width="1" height="1"/>
      <rect x="28" y="26" width="1" height="1"/>
      <rect x="29" y="26" width="1" height="1"/>
      <rect x="30" y="26" width="1" height="1"/>
      <rect x="2" y="27" width="1" height="1"/>
      <rect x="4" y="27" width="1" height="1"/>
      <rect x="5" y="27" width="1" height="1"/>
      <rect x="6" y="27" width="1" height="1"/>
      <rect x="8" y="27" width="1" height="1"/>
      <rect x="10" y="27" width="1" height="1"/>
      <rect x="12" y="27" width="1" height="1"/>
      <rect x="14" y="27" width="1" height="1"/>
      <rect x="19" y="27" width="1" height="1"/>
      <rect x="20" y="27" width="1" height="1"/>
      <rect x="21" y="27" width="1" height="1"/>
      <rect x="26" y="27" width="1" height="1"/>
      <rect x="28" y="27" width="1" height="1"/>
      <rect x="29" y="27" width="1" height="1"/>
      <rect x="2" y="28" width="1" height="1"/>
      <rect x="4" y="28" width="1" height="1"/>
      <rect x="5" y="28" width="1" height="1"/>
      <rect x="6" y="28" width="1" height="1"/>
      <rect x="8" y="28" width="1" height="1"/>
      <rect x="10" y="28" width="1" height="1"/>
      <rect x="11" y="28" width="1" height="1"/>
      <rect x="12" y="28" width="1" height="1"/>
      <rect x="13" y="28" width="1" height="1"/>
      <rect x="14" y="28" width="1" height="1"/>
      <rect x="15" y="28" width="1" height="1"/>
      <rect x="16" y="28" width="1" height="1"/>
      <rect x="17" y="28" width="1" height="1"/>
      <rect x="18" y="28" width="1" height="1"/>
      <rect x="22" y="28" width="1" height="1"/>
      <rect x="25" y="28" width="1" height="1"/>
      <rect x="28" y="28" width="1" height="1"/>
      <rect x="30" y="28" width="1" height="1"/>
      <rect x="2" y="29" width="1" height="1"/>
      <rect x="8" y="29" width="1" height="1"/>
      <rect x="15" y="29" width="1" height="1"/>
      <rect x="18" y="29" width="1" height="1"/>
      <rect x="20" y="29" width="1" height="1"/>
      <rect x="22" y="29" width="1" height="1"/>
      <rect x="23" y="29" width="1" height="1"/>
      <rect x="26" y="29" width="1" height="1"/>
      <rect x="27" y="29" width="1" height="1"/>
      <rect x="29" y="29" width="1" height="1"/>
      <rect x="2" y="30" width="1" height="1"/>
      <rect x="3" y="30" width="1" height="1"/>
      <rect x="4" y="30" width="1" height="1"/>
      <rect x="5" y="30" width="1" height="1"/>
      <rect x="6" y="30" width="1" height="1"/>
      <rect x="7" y="30" width="1" height="1"/>
      <rect x="8" y="30" width="1" height="1"/>
      <rect x="11" y="30" width="1" height="1"/>
      <rect x="12" y="30" width="1" height="1"/>
      <rect x="17" y="30" width="1" height="1"/>
      <rect x="21" y="30" width="1" height="1"/>
      <rect x="22" y="30" width="1" height="1"/>
      <rect x="24" y="30" width="1" height="1"/>
      <rect x="25" y="30" width="1" height="1"/>
      <rect x="29" y="30" width="1" height="1"/>
    </g>
  </g>

  <!-- Embedded logo: cream backdrop clears QR modules behind, logo on top -->
  <rect x="294.00" y="192.00" width="72.00" height="72.00"
        rx="4.80" ry="4.80" fill="#f0ede6"/>
  <use xlink:href="#cclogo" transform="translate(303.60, 201.60) scale(0.1031)"/>

  <text x="330" y="415.20"
        text-anchor="middle"
        font-family="'Inter', -apple-system, BlinkMacSystemFont, 'Segoe UI', 'Helvetica Neue', sans-serif"
        font-size="36.00"
        font-weight="500"
        fill="#f0ede6"
        letter-spacing="4.80">OPEN SOURCE  ·  ANDROID</text>

  <text x="330" y="463.20"
        text-anchor="middle"
        font-family="'Inter', -apple-system, BlinkMacSystemFont, 'Segoe UI', 'Helvetica Neue', sans-serif"
        font-size="36.00"
        font-weight="500"
        letter-spacing="4.80">
    <tspan fill="#e07a4f" font-weight="700">KILTER BOARD</tspan><tspan fill="#f0ede6">  APP</tspan>
  </text>

  <text x="330" y="522.00"
        text-anchor="middle"
        font-family="'Inter', -apple-system, BlinkMacSystemFont, 'Segoe UI', 'Helvetica Neue', sans-serif"
        font-size="48.00"
        font-weight="600"
        fill="#f0ede6"
        letter-spacing="0.60">cruxcoach.org</text>

</svg>
